<svg xmlns="http://www.w3.org/2000/svg" fill="none" viewBox="0 0 200 200" height="200" width="200">
<g clip-path="url(#clip0_2197_2951)">
<path fill="black" d="M70.1941 95.9424L69.2075 112.683L79.5987 109.892L70.3897 95.8889L70.1941 95.9424Z"></path>
<path fill="black" d="M187.558 106.006L200.002 98.5524L195.364 95.9669L172.969 101.98L162.695 63.5793L169.533 61.7442L178.144 93.9536L187.335 91.4861L198.391 82.0858L184.742 77.1864L194.124 66.1069L179.855 63.5169L187.28 51.0345L172.782 50.8496L178.038 37.3093L163.708 39.5363L166.669 25.299L152.891 29.8421L153.484 15.3241L140.642 22.072L138.864 7.65205L127.308 16.4176L123.159 2.48981L113.199 13.0504L106.821 0L98.7478 12.0682L90.3032 0.265016L84.3165 13.4913L74.0653 3.21359L70.3075 17.2438L58.514 8.79674L57.1229 23.259L44.0938 16.8853L45.1161 31.381L31.2137 27.2499L34.6026 41.3781L20.2136 39.5965L25.867 52.9786L11.3779 53.5777L19.1424 65.8486L4.94894 68.815L14.6246 79.6406L1.11112 84.9253L12.4446 93.9937L0 101.448L12.6668 108.512L1.61557 117.914L15.2646 122.814L5.88451 133.898L20.1513 136.488L12.7268 148.959L27.227 149.141L21.9691 162.695L36.2982 160.468L33.3337 174.701L47.1116 170.145L46.5183 184.663L59.3584 177.939L61.1362 192.359L72.6919 183.594L76.8231 197.521L86.7832 186.961L93.161 200.011L101.234 187.941L109.679 199.744L115.666 186.509L125.917 196.786L129.675 182.756L141.47 191.208L142.859 176.743L155.888 183.119L154.891 168.619L168.793 172.75L165.404 158.62L179.793 160.401L174.14 147.019L188.629 146.42L180.864 134.149L195.051 131.172L185.378 120.348L198.891 115.075L187.558 106.006ZM52.0806 134.441L44.176 104.879L43.3138 136.795L37.3826 138.387L20.7158 111.18L28.6181 140.748L21.778 142.578L11.5112 104.176L21.8825 101.392L37.4649 126.807L38.2782 96.9891L48.6494 94.2031L58.9184 132.606L52.0806 134.441ZM89.1921 124.477L83.3343 115.582L68.8097 119.484L68.183 130.127L61.334 131.958L64.3429 89.9918L72.4964 87.8004L96.0522 122.638L89.1921 124.477ZM120.641 81.5558L129.241 113.723L122.404 115.558L113.803 83.3909L99.8033 87.1501L108.403 119.317L101.568 121.15L92.9677 88.9852L82.0009 91.9337L80.3342 85.6981L129.95 72.3782L131.619 78.6139L120.641 81.5558ZM143.653 109.852L133.384 71.4496L157.96 64.8509L159.626 71.0866L141.888 75.8502L144.333 84.9966L160.626 80.6182L162.282 86.8116L146.002 91.1899L148.822 101.775L166.891 96.9267L168.557 103.162L143.653 109.852Z"></path>
<path fill="black" d="M175.675 170.038H175.02V166.045H176.531C176.912 166.018 177.292 166.113 177.618 166.314C177.745 166.419 177.846 166.554 177.909 166.707C177.973 166.86 177.999 167.026 177.984 167.191C177.997 167.337 177.976 167.484 177.925 167.621C177.873 167.758 177.792 167.881 177.686 167.982C177.474 168.154 177.216 168.259 176.944 168.283L178.055 170.038H177.313L176.284 168.329H175.669L175.675 170.038ZM176.406 167.771C176.529 167.771 176.644 167.771 176.758 167.757C176.86 167.749 176.959 167.721 177.051 167.675C177.134 167.631 177.204 167.565 177.253 167.485C177.31 167.381 177.336 167.263 177.329 167.145C177.334 167.042 177.306 166.94 177.249 166.855C177.193 166.785 177.123 166.729 177.042 166.69C176.953 166.651 176.859 166.627 176.762 166.619C176.663 166.609 176.564 166.603 176.464 166.604H175.675V167.771H176.406Z"></path>
<path fill="black" d="M176.395 171.677C175.678 171.677 174.976 171.463 174.379 171.064C173.782 170.664 173.317 170.096 173.043 169.432C172.768 168.767 172.696 168.036 172.836 167.331C172.976 166.625 173.322 165.977 173.829 165.468C174.337 164.96 174.983 164.613 175.687 164.473C176.391 164.333 177.121 164.405 177.784 164.68C178.447 164.955 179.014 165.421 179.413 166.02C179.811 166.618 180.024 167.321 180.024 168.04C180.023 169.004 179.64 169.928 178.96 170.61C178.28 171.292 177.357 171.676 176.395 171.677ZM176.395 165.04C175.803 165.04 175.223 165.216 174.731 165.546C174.238 165.876 173.854 166.345 173.628 166.894C173.401 167.443 173.342 168.046 173.457 168.629C173.573 169.211 173.859 169.746 174.278 170.166C174.697 170.586 175.231 170.871 175.812 170.987C176.393 171.102 176.996 171.043 177.543 170.815C178.091 170.588 178.558 170.202 178.887 169.708C179.216 169.214 179.391 168.634 179.391 168.04C179.39 167.244 179.074 166.481 178.513 165.919C177.951 165.356 177.189 165.04 176.395 165.04Z"></path>
</g>
<defs>
<clipPath id="clip0_2197_2951">
<rect fill="white" height="200" width="200"></rect>
</clipPath>
</defs>
</svg>
